<svg width="715" height="714" viewBox="0 0 715 714" fill="none" xmlns="http://www.w3.org/2000/svg">
<path fill-rule="evenodd" clip-rule="evenodd" d="M328.5 0.594007C326.85 0.817007 321.225 1.47201 316 2.04901C103.582 25.524 -41.195 235.666 11.519 444C79.31 711.921 414.176 804.07 609.556 608.568C818.699 399.295 698.203 44.829 403.5 2.40601C393.076 0.905007 336.336 -0.465993 328.5 0.594007Z" fill="#378AD4"/>
<path fill-rule="evenodd" clip-rule="evenodd" d="M328.5 0.594007C326.85 0.817007 321.225 1.47201 316 2.04901C103.582 25.524 -41.195 235.666 11.519 444C79.31 711.921 414.176 804.07 609.556 608.568C818.699 399.295 698.203 44.829 403.5 2.40601C393.076 0.905007 336.336 -0.465993 328.5 0.594007ZM362.429 177.571C363.293 178.436 364 179.223 364 179.321C363.999 183.437 358.651 217.715 357.862 218.667C354.663 222.521 315.524 219.789 315.186 215.688C314.65 209.183 318.956 179.712 320.728 177.75C322.992 175.245 359.944 175.087 362.429 177.571ZM205.634 189.919C219.607 198.439 216.861 218.366 201.062 223.1C190.783 226.179 179.769 217.265 179.769 205.866C179.769 192.919 195.077 183.481 205.634 189.919ZM539.239 212.558C551.248 215.422 551.718 234.44 539.931 240.536C525.255 248.125 511.479 226.832 523.831 215.653C526.302 213.417 532.935 210.953 535 211.505C535.825 211.725 537.733 212.199 539.239 212.558ZM354.492 239.371C356.992 241.198 346.162 320.818 341.559 334.462C332.808 360.395 312.178 374.015 281.685 373.992C243.614 373.964 227.199 360.282 226.196 327.74C225.64 309.676 224.073 311 246 311C266.8 311 265.862 310.496 265.742 321.606C265.58 336.627 272.823 343.944 285.5 341.566C295.196 339.747 298.568 332.369 302.439 304.5C303.815 294.6 306.303 276.7 307.97 264.722C309.636 252.744 311 242.539 311 242.043C311 237.906 349.273 235.554 354.492 239.371ZM133.956 381.977C144.856 387.538 146.906 402.631 137.923 411.185C124.518 423.948 103.213 408.341 110.908 391.395C115.433 381.431 125.123 377.471 133.956 381.977ZM284.094 515.455C291.038 520.028 293.831 531.707 289.408 537.677C280.22 550.077 262.986 547.736 259.013 533.548C254.8 518.5 270.987 506.822 284.094 515.455Z" fill="#3779B9"/>
<path fill-rule="evenodd" clip-rule="evenodd" d="M328.5 0.594007C326.85 0.817007 321.225 1.47201 316 2.04901C103.582 25.524 -41.195 235.666 11.519 444C79.31 711.921 414.176 804.07 609.556 608.568C818.699 399.295 698.203 44.829 403.5 2.40601C393.076 0.905007 336.336 -0.465993 328.5 0.594007ZM362.429 177.571C364.367 179.51 364.421 178.008 361.654 199.19C358.679 221.97 361.06 220 336.5 220C311.517 220 313.476 221.776 316.013 201.415C318.648 180.267 318.832 179.311 320.611 177.532C322.914 175.229 360.121 175.264 362.429 177.571ZM205.505 189.57C217.465 195.245 218.3 213.141 206.956 220.648C188.861 232.622 169.33 208.37 184.941 193.312C191.54 186.946 197.638 185.836 205.505 189.57ZM542.824 213.681C551.478 220.023 550.894 234.436 541.759 240.005C530.282 247.003 515.476 235.918 519.045 223C521.888 212.711 534.667 207.703 542.824 213.681ZM355.339 240.175C356.469 241.968 346.149 319.135 343.326 330C328.376 387.535 233.992 391.801 225.972 335.304C222.542 311.139 223.841 309.607 247 310.524C268.01 311.356 266 310.264 266 320.847C266 338.95 277.672 347.551 290.497 338.9C298.142 333.742 298.454 332.391 308.021 263.03C309.726 250.671 311.606 239.974 312.199 239.26C314.001 237.089 353.928 237.936 355.339 240.175ZM134.47 382.282C144.586 388.011 146.816 401.123 139.211 410.161C130.84 420.109 114.337 416.669 110.136 404.101C105.048 388.876 120.946 374.622 134.47 382.282ZM280.685 513.067C284.478 514.504 287.801 517.732 290.097 522.21C299.834 541.196 270.807 556.053 260.282 537.47C252.347 523.461 265.764 507.413 280.685 513.067Z" fill="#24609F"/>
<path fill-rule="evenodd" clip-rule="evenodd" d="M328.5 0.594007C326.85 0.817007 321.225 1.47201 316 2.04901C103.582 25.524 -41.195 235.666 11.519 444C79.31 711.921 414.176 804.07 609.556 608.568C818.699 399.295 698.203 44.829 403.5 2.40601C393.076 0.905007 336.336 -0.465993 328.5 0.594007ZM389.85 96.923C396.5 100.316 399.55 108.597 397.667 118.149C396.947 121.797 396.947 121.797 434.224 148.051C487.589 185.637 498.004 192.983 502.447 196.169C507.1 199.506 508.122 199.628 510.398 197.113C520.598 185.841 547.153 187.017 559.835 199.301C588.085 226.663 558.898 274.518 521.918 261.471C518.295 260.193 518.295 260.193 510.454 276.846C506.141 286.006 500.049 298.9 496.916 305.5C493.782 312.1 485.061 330.55 477.535 346.5C470.009 362.45 463.435 375.927 462.926 376.45C460.391 379.051 463.02 372.697 474.416 348.673C502.783 288.877 516 260.695 516 260.005C516 259.602 514.176 258.008 511.947 256.464C496.392 245.684 492.222 223.638 502.507 206.558C505.179 202.122 505.743 200.469 504.781 199.904C503.407 199.097 475.363 179.446 426.786 145.25C392.818 121.339 396.13 123.163 392.924 126.595C384.249 135.881 370.195 133.102 363.869 120.849C362.5 118.198 362.5 118.198 300.068 149.114C229.028 184.293 236.303 180.282 238.211 183.219C259.54 216.051 221.737 262.933 184.405 249.946C181.157 248.816 177.941 247.803 177.257 247.696C175.538 247.425 131.265 380.255 132.893 380.798C135.648 381.716 140.417 386.709 142.12 390.459C149.406 406.497 133.42 421.873 117.96 413.697C102.535 405.541 108.92 380 126.384 380C131.337 380 176.673 245.983 172.2 244.564C164.616 242.156 153.54 224.399 151.713 211.716C145.317 167.32 199.48 140.564 230.313 172.889C236.055 178.91 236.055 178.91 288.778 152.63C317.775 138.176 346 124.128 351.5 121.412C361.5 116.475 361.5 116.475 362.142 111.227C363.857 97.209 377.055 90.396 389.85 96.923ZM363.05 177.561C364.665 179.506 360.626 214.142 358.365 217.75C356.592 220.577 317.361 221.344 315.081 218.597C313.629 216.848 318.058 179.84 319.998 177.502C321.889 175.224 361.155 175.277 363.05 177.561ZM355.014 239.517C356.6 241.428 356.34 243.99 349.988 289.054C340.341 357.493 326.87 374.273 281.5 374.362C242.228 374.439 223.652 357.044 225.15 321.594C225.657 309.584 224.93 310 245.431 310C266.697 310 265.752 309.445 266.177 322.179C266.852 342.409 283.799 349.303 294.964 333.891C298.649 328.804 298.873 327.656 305.457 280.156C308.457 258.517 311.436 240.18 312.078 239.406C313.866 237.252 353.218 237.353 355.014 239.517ZM403.329 243.364C413.532 247.627 415.295 262.247 406.389 268.735C403.4 270.913 402.504 268.302 426.046 326C431.096 338.375 437.414 353.874 440.088 360.443C444.335 370.88 445.38 374.714 443.452 372.785C443.151 372.484 435.716 354.521 426.93 332.869C399.697 265.749 401.956 270.879 399.918 271.526C396.574 272.587 390.299 270.105 387.091 266.451C377.57 255.607 390.075 237.826 403.329 243.364ZM574.102 367.583C591.862 376.562 585.415 402.608 565.5 402.337C559.5 402.255 559.5 402.255 531.561 454.628C507.392 499.935 502 509.383 502 506.428C502 506.114 503.066 503.976 504.368 501.678C505.671 499.38 509.331 492.55 512.503 486.5C518.05 475.921 544.559 426.188 553.613 409.376C557.988 401.251 557.988 401.251 553.595 396.858C538.533 381.796 555.186 358.02 574.102 367.583ZM181.373 429.942C188.914 425.493 198.09 428.611 202.147 437C203.344 439.475 204.397 441.609 204.487 441.741C204.634 441.96 245.742 443.853 286.523 445.519C302.547 446.174 302.547 446.174 304.26 442.58C309.865 430.827 328.115 433.433 330.535 446.333C333.676 463.08 309.699 469.254 303.5 453.294C301.169 447.291 304.468 447.83 259 446.023C244.425 445.444 226.2 444.697 218.5 444.364C197.215 443.442 195.818 448.445 212.755 464.934C219.215 471.223 229.717 481.496 236.093 487.762C247.686 499.155 247.686 499.155 252.488 496.11C275.758 481.352 305.165 491.958 313.248 518.024C315.5 525.285 315.5 525.285 341.5 524.647C390.289 523.448 464.501 522.722 463.83 523.448C463.461 523.847 430.386 524.795 390.33 525.554C350.273 526.312 317.002 526.948 316.392 526.967C315.778 526.985 314.998 529.745 314.641 533.164C312.026 558.177 286.387 574.879 262.801 566.933C235.838 557.85 226.301 524.811 244.424 503.273C246.944 500.278 246.944 500.278 240.222 494.004C236.525 490.553 226.008 480.304 216.851 471.227C200.202 454.724 200.202 454.724 195.785 456.862C183.426 462.845 169.12 451.514 173.939 439.559C174.617 437.877 175.387 435.802 175.65 434.95C175.989 433.853 172.364 430.859 163.255 424.71C144.845 412.284 140.92 409.413 141.521 408.812C141.814 408.52 150.065 413.647 159.858 420.206C177.663 432.131 177.663 432.131 181.373 429.942Z" fill="#1B4880"/>
<path fill-rule="evenodd" clip-rule="evenodd" d="M328.5 0.594007C326.85 0.817007 321.225 1.47201 316 2.04901C103.582 25.524 -41.195 235.666 11.519 444C79.31 711.921 414.176 804.07 609.556 608.568C818.699 399.295 698.203 44.829 403.5 2.40601C393.076 0.905007 336.336 -0.465993 328.5 0.594007ZM388.579 95.896C397.175 99.801 401.249 110.631 397.644 120C397.227 121.082 402.696 125.459 417.283 135.718C428.403 143.538 453.144 160.962 472.264 174.437C507.028 198.938 507.028 198.938 512.933 195.122C537.086 179.511 568.318 194.171 571.538 222.632C574.421 248.114 547.937 270.176 523.547 262.61C517.524 260.742 522.54 252.034 490.774 319.5C486.371 328.85 480.087 342.125 476.808 349C462.667 378.652 463.334 376.562 466.857 380.165C468.574 381.921 470.26 384.245 470.604 385.329C471.207 387.226 471.906 387.276 489.365 386.662C499.339 386.311 516.388 385.724 527.25 385.358C547 384.693 547 384.693 547 382.314C547 368.931 564.921 360.646 576.407 368.719C592.474 380.011 583.722 404.919 564.45 402.747C560.019 402.248 560.019 402.248 550.344 420.374C545.023 430.343 539.224 441.2 537.458 444.5C516.43 483.789 504 507.194 504 507.497C504 507.701 505.4 510.118 507.11 512.87C516.962 528.719 506.92 548.061 488.765 548.206C476.805 548.302 465.102 538.139 465.022 527.588C464.998 524.354 474.165 524.428 351.374 526.661C315.248 527.318 315.248 527.318 314.735 533.713C313.381 550.577 298.704 565.903 280.944 568.996C246.75 574.951 221.599 532.95 242.759 505.228C247.403 499.144 203.178 453.595 196.121 457.193C182.96 463.903 167.796 449.963 174.388 437.216C176.296 433.526 177.595 434.71 155.146 419.672C140.792 410.057 140.792 410.057 137.582 412.505C128.816 419.191 115.838 416.484 110.977 406.956C104.905 395.053 113.464 380.01 126.315 379.997C130.964 379.992 175.514 247.549 171.706 245.056C155.166 234.231 146.941 210.721 152.868 191.209C163.127 157.435 204.712 147.171 230.335 172.089C235.241 176.86 236.625 177.709 238.38 177.023C269.149 165.003 361.576 115.331 362.116 110.527C363.555 97.702 376.634 90.471 388.579 95.896ZM300.067 149.552C228.171 185.224 237.095 179.591 240.49 187.157C256.853 223.619 217.698 264.689 181.135 249.412C179.276 248.635 177.406 248 176.979 248C176.553 248 166.424 277.363 154.472 313.25C142.52 349.137 132.542 379.022 132.298 379.66C132.055 380.297 132.796 381.118 133.945 381.483C137.366 382.568 141.997 388.198 143.263 392.809C144.446 397.117 144.446 397.117 155.473 396.574C167.651 395.975 173.615 395.789 271 392.971C308.125 391.896 340.975 391.012 344 391.005C349.5 390.992 349.5 390.992 349.511 382.246C349.562 343.549 405.611 342.287 409.647 380.892C410.263 386.792 410.263 386.792 416.382 387.968C419.747 388.615 423.456 389.371 424.624 389.649C426.356 390.061 427.155 389.311 428.963 385.575C431.324 380.699 437.003 375.315 440.81 374.343C442.08 374.019 442.92 373.246 442.676 372.627C442.432 372.007 435.247 354.4 426.708 333.5C418.17 312.6 409.071 290.212 406.488 283.75C401.792 272 401.792 272 398.364 272C391.26 272 385.251 267.482 383.679 260.958C383.071 258.437 383.008 258.422 375.783 259.146C371.777 259.548 366.025 259.876 363 259.875C354.086 259.872 360.144 258.319 372.299 257.49C382.808 256.774 383.035 256.707 383.642 254.13C386.54 241.844 400.858 238.135 409.398 247.459C412.513 250.859 412.513 250.859 444.006 243.534C461.328 239.505 480.113 235.158 485.75 233.875C496 231.54 496 231.54 496 227.48C496 221.39 498.694 212.1 502.032 206.684C505.771 200.616 505.894 201.136 499.743 197C496.88 195.075 488.454 189.196 481.019 183.936C391.391 120.531 396.502 123.79 392.546 127.521C383.873 135.701 371.496 133.889 365.203 123.518C361.851 117.994 371.217 114.251 300.067 149.552ZM373 132C372.656 132.896 372.115 134.958 371.5 137.5C370.885 140.041 370 144.5 369.5 146C369 147.5 363 174.5 362.5 175.5C361 177.524 360 176 360 175.5C359.5 174.5 359.5 177.524 362.176 165C359.725 176.472 364.621 155.162 367 146.5C369.38 137.838 370.48 131 371 131C371.52 131 373.344 131.104 373 132ZM363.02 177.524C364.433 179.227 364.169 183.582 361.4 204.27C360.46 211.294 359.198 217.704 358.595 218.514C355.943 222.081 315.624 221.54 314.475 217.922C313.552 215.014 317.98 180.804 319.61 178.25C321.479 175.322 360.649 174.667 363.02 177.524ZM272.648 233.124C289.066 238.142 302.687 242.417 302.917 242.624C304.543 244.092 301.121 243.885 295.814 242.193C292.341 241.086 284.775 238.763 279 237.032C273.225 235.301 267.375 233.487 266 233C264.625 232.513 258.775 230.68 253 228.926C243.435 226.02 238.8 224 241.698 224C242.301 224 256.229 228.106 272.648 233.124ZM468 239.929C454.525 243.067 436.64 247.179 428.255 249.067C413.011 252.5 413.011 252.5 413.005 255.782C412.998 260.426 410.778 265.167 407.206 268.173C404.14 270.753 404.14 270.753 420.139 310.127C428.938 331.782 438.234 354.742 440.797 361.148C445.456 372.796 445.456 372.796 451.478 373.299C454.79 373.576 458.415 374.099 459.533 374.461C461.36 375.053 462.718 372.664 472.973 350.81C479.248 337.439 487.389 320.182 491.065 312.46C494.741 304.738 498.884 295.963 500.272 292.96C501.659 289.957 505.78 281.226 509.429 273.558C515.468 260.867 515.904 259.531 514.282 258.672C509.4 256.089 501.143 246.096 498.973 240.147C496.246 232.667 499.092 232.687 468 239.929ZM354.915 238.927C356.524 239.945 356.557 243.989 355.044 254.5C354.489 258.35 352.242 274.325 350.048 290C344.392 330.423 343.564 334.146 337.778 345.175C315.008 388.58 234.422 384.21 226.005 339.114C221.247 313.619 223.715 310 245.857 310C266.61 310 265.998 309.713 266.006 319.45C266.019 335.886 273.59 344.161 285.586 340.849C297.328 337.607 297.458 337.128 308.175 258C311.125 236.219 308.892 237.997 333.273 238.015C344.398 238.024 354.137 238.434 354.915 238.927ZM509.5 388.054C499.6 388.437 487.322 388.807 482.216 388.875C472.931 389 472.931 389 473.58 393.889C474.818 403.224 469.462 413.096 460.824 417.4C445.24 425.166 427.285 414.339 426.651 396.794C426.461 391.549 426.461 391.549 422.481 390.907C410.98 389.053 409 389.001 409 390.552C409 393.048 403.998 402.281 400.852 405.591C397.915 408.683 397.915 408.683 420.74 438.091C451.928 478.275 469.336 500.983 471.413 504.193C473.156 506.887 473.156 506.887 477.328 504.693C482.619 501.912 492.839 501.706 497.912 504.278C502.059 506.381 497.105 514.324 529.407 453.786C560.396 395.707 558.014 401.126 553.897 398.082C552.19 396.82 549.919 393.81 548.85 391.394C546.641 386.401 548.384 386.549 509.5 388.054ZM254 396.056C205.325 397.592 160.713 398.882 154.861 398.924C143.661 399.004 143.136 399.357 142.552 407.2C142.374 409.593 177.685 431.704 179.53 430.354C188.018 424.148 200.941 428.87 203.496 439.111C204.147 441.721 204.147 441.721 222.823 442.383C257.943 443.626 291.497 445.01 296.728 445.431C301.921 445.848 301.971 445.825 304.162 441.926C308.695 433.86 318.957 431.979 326.062 437.911C330.934 441.978 359.416 407.766 355.508 402.54C354.259 400.868 352.496 398.038 351.592 396.25C350.155 393.409 349.48 393.017 346.224 393.132C344.176 393.205 302.675 394.521 254 396.056ZM358.399 408.563C357.905 409.256 351.445 417.256 344.044 426.341C330.829 442.565 330.594 442.939 330.865 447.344C331.341 455.081 325.863 462.09 318.343 463.367C310.179 464.754 296.768 494.269 301.996 499.344C309.241 506.375 315 516.944 315 523.206C315 524.862 315.655 525.003 321.25 524.554C324.688 524.277 346.4 523.813 369.5 523.521C461.329 522.361 464.538 522.18 465.974 518.098C466.671 516.119 468.271 513.121 469.53 511.436C471.818 508.372 471.818 508.372 467.728 502.936C463.299 497.049 424.612 446.776 408.67 426.192C403.264 419.212 398.225 412.647 397.474 411.604C396.137 409.749 395.997 409.755 391.118 411.854C383.092 415.306 373.809 414.867 365.722 410.652C360.788 408.08 359.09 407.596 358.399 408.563ZM203.933 446.86C203.419 448.312 202.562 450.261 202.027 451.192C199.359 455.837 247.979 499.027 252.329 495.877C261.521 489.218 275.674 487.349 287.645 491.213C291.415 492.43 294.851 493.442 295.28 493.463C298.464 493.615 312.568 463.064 309.836 461.932C306.239 460.442 303.048 456.072 302.331 451.652C301.785 448.285 301.785 448.285 284.642 447.628C242.695 446.02 217.03 444.964 211.183 444.606C205.111 444.235 204.831 444.321 203.933 446.86Z" fill="#142849"/>
</svg>
